<svg width="1025" height="768" viewBox="0 0 1025 768" fill="none" xmlns="http://www.w3.org/2000/svg">
<ellipse cx="512.5" cy="384" rx="512.5" ry="384" fill="#C0006D"/>
<ellipse cx="349" cy="384" rx="349" ry="262" fill="url(#paint0_linear_10_78)"/>
<ellipse cx="177" cy="384" rx="177" ry="133" fill="#FFB403"/>
<path d="M81.4396 350.545V416H69.5824V362.083H69.1989L53.8899 371.863V360.996L70.1577 350.545H81.4396Z" fill="white"/>
<path d="M106.122 371.545V397H101.511V371.545H106.122ZM115.416 385.814V397H110.916V377.909H115.217V381.153H115.44C115.88 380.084 116.58 379.235 117.541 378.605C118.51 377.975 119.708 377.661 121.133 377.661C122.45 377.661 123.598 377.942 124.576 378.506C125.562 379.069 126.324 379.885 126.863 380.954C127.41 382.023 127.679 383.32 127.671 384.844V397H123.171V385.54C123.171 384.264 122.84 383.266 122.177 382.545C121.522 381.824 120.615 381.464 119.455 381.464C118.668 381.464 117.968 381.638 117.354 381.986C116.75 382.326 116.273 382.819 115.925 383.465C115.585 384.111 115.416 384.894 115.416 385.814ZM148.613 377.909L141.815 397H136.843L130.044 377.909H134.842L139.229 392.091H139.428L143.828 377.909H148.613ZM159.529 397.373C157.615 397.373 155.962 396.975 154.57 396.18C153.186 395.376 152.121 394.241 151.376 392.774C150.63 391.299 150.257 389.563 150.257 387.566C150.257 385.603 150.63 383.879 151.376 382.396C152.13 380.904 153.182 379.744 154.533 378.916C155.883 378.079 157.47 377.661 159.293 377.661C160.47 377.661 161.58 377.851 162.624 378.232C163.676 378.605 164.604 379.185 165.408 379.972C166.22 380.759 166.858 381.762 167.322 382.98C167.786 384.19 168.018 385.632 168.018 387.305V388.685H152.37V385.652H163.705C163.697 384.791 163.511 384.024 163.146 383.353C162.781 382.674 162.272 382.139 161.617 381.75C160.971 381.36 160.217 381.165 159.355 381.165C158.435 381.165 157.627 381.389 156.931 381.837C156.235 382.276 155.693 382.856 155.303 383.577C154.922 384.289 154.727 385.072 154.719 385.926V388.573C154.719 389.683 154.922 390.636 155.328 391.432C155.734 392.219 156.302 392.824 157.031 393.246C157.76 393.661 158.614 393.868 159.591 393.868C160.246 393.868 160.838 393.777 161.369 393.594C161.899 393.404 162.359 393.126 162.748 392.762C163.138 392.397 163.432 391.946 163.631 391.407L167.832 391.879C167.567 392.99 167.061 393.959 166.315 394.788C165.578 395.608 164.633 396.246 163.482 396.702C162.33 397.149 161.012 397.373 159.529 397.373ZM186.913 382.955L182.812 383.403C182.696 382.988 182.493 382.599 182.203 382.234C181.921 381.87 181.54 381.576 181.059 381.352C180.579 381.128 179.99 381.016 179.294 381.016C178.358 381.016 177.571 381.219 176.933 381.625C176.303 382.031 175.992 382.558 176.001 383.204C175.992 383.759 176.195 384.211 176.61 384.559C177.032 384.907 177.728 385.192 178.698 385.416L181.954 386.112C183.76 386.502 185.103 387.119 185.981 387.964C186.868 388.809 187.315 389.915 187.323 391.283C187.315 392.484 186.963 393.545 186.267 394.464C185.579 395.376 184.622 396.089 183.396 396.602C182.17 397.116 180.761 397.373 179.17 397.373C176.833 397.373 174.952 396.884 173.527 395.906C172.102 394.92 171.253 393.549 170.979 391.792L175.367 391.37C175.566 392.231 175.988 392.882 176.634 393.321C177.281 393.76 178.122 393.98 179.158 393.98C180.226 393.98 181.084 393.76 181.73 393.321C182.385 392.882 182.712 392.339 182.712 391.693C182.712 391.146 182.501 390.694 182.078 390.338C181.664 389.982 181.018 389.708 180.139 389.518L176.883 388.834C175.052 388.453 173.697 387.811 172.819 386.908C171.94 385.996 171.505 384.844 171.514 383.452C171.505 382.276 171.824 381.257 172.471 380.395C173.125 379.525 174.033 378.854 175.193 378.381C176.361 377.901 177.708 377.661 179.232 377.661C181.469 377.661 183.23 378.137 184.514 379.09C185.807 380.043 186.607 381.331 186.913 382.955ZM200.566 377.909V381.389H189.592V377.909H200.566ZM192.301 373.335H196.801V391.258C196.801 391.863 196.892 392.327 197.074 392.65C197.265 392.965 197.513 393.18 197.82 393.296C198.126 393.412 198.466 393.47 198.839 393.47C199.121 393.47 199.377 393.449 199.609 393.408C199.85 393.367 200.032 393.329 200.156 393.296L200.915 396.814C200.674 396.896 200.33 396.988 199.883 397.087C199.444 397.186 198.905 397.244 198.267 397.261C197.14 397.294 196.125 397.124 195.222 396.751C194.319 396.37 193.602 395.782 193.072 394.987C192.55 394.191 192.293 393.197 192.301 392.004V373.335ZM204.329 397V377.909H208.829V397H204.329ZM206.591 375.2C205.879 375.2 205.266 374.963 204.752 374.491C204.238 374.011 203.981 373.435 203.981 372.763C203.981 372.084 204.238 371.508 204.752 371.036C205.266 370.555 205.879 370.315 206.591 370.315C207.312 370.315 207.925 370.555 208.431 371.036C208.945 371.508 209.202 372.084 209.202 372.763C209.202 373.435 208.945 374.011 208.431 374.491C207.925 374.963 207.312 375.2 206.591 375.2ZM220.54 397.336C219.04 397.336 217.698 396.95 216.513 396.18C215.328 395.409 214.392 394.29 213.704 392.824C213.016 391.357 212.672 389.576 212.672 387.479C212.672 385.358 213.02 383.568 213.716 382.11C214.421 380.643 215.369 379.537 216.563 378.792C217.756 378.038 219.086 377.661 220.552 377.661C221.671 377.661 222.591 377.851 223.312 378.232C224.032 378.605 224.604 379.057 225.027 379.587C225.449 380.109 225.777 380.602 226.009 381.066H226.195V371.545H230.707V397H226.282V393.992H226.009C225.777 394.456 225.441 394.949 225.002 395.471C224.563 395.985 223.983 396.424 223.262 396.789C222.541 397.153 221.634 397.336 220.54 397.336ZM221.795 393.644C222.748 393.644 223.56 393.387 224.231 392.874C224.902 392.352 225.412 391.627 225.76 390.699C226.108 389.77 226.282 388.689 226.282 387.455C226.282 386.22 226.108 385.147 225.76 384.235C225.42 383.324 224.915 382.616 224.244 382.11C223.581 381.605 222.765 381.352 221.795 381.352C220.793 381.352 219.956 381.613 219.285 382.135C218.613 382.657 218.108 383.378 217.768 384.298C217.428 385.217 217.259 386.27 217.259 387.455C217.259 388.648 217.428 389.712 217.768 390.649C218.116 391.577 218.626 392.31 219.297 392.849C219.976 393.379 220.809 393.644 221.795 393.644ZM243.829 397.373C241.964 397.373 240.349 396.963 238.981 396.142C237.614 395.322 236.554 394.174 235.8 392.7C235.054 391.225 234.681 389.501 234.681 387.529C234.681 385.557 235.054 383.829 235.8 382.346C236.554 380.863 237.614 379.711 238.981 378.891C240.349 378.071 241.964 377.661 243.829 377.661C245.693 377.661 247.309 378.071 248.676 378.891C250.043 379.711 251.1 380.863 251.845 382.346C252.599 383.829 252.976 385.557 252.976 387.529C252.976 389.501 252.599 391.225 251.845 392.7C251.1 394.174 250.043 395.322 248.676 396.142C247.309 396.963 245.693 397.373 243.829 397.373ZM243.854 393.768C244.864 393.768 245.71 393.491 246.389 392.936C247.068 392.372 247.574 391.618 247.905 390.674C248.245 389.729 248.415 388.677 248.415 387.517C248.415 386.348 248.245 385.292 247.905 384.347C247.574 383.394 247.068 382.636 246.389 382.073C245.71 381.509 244.864 381.228 243.854 381.228C242.818 381.228 241.956 381.509 241.268 382.073C240.589 382.636 240.079 383.394 239.74 384.347C239.408 385.292 239.242 386.348 239.242 387.517C239.242 388.677 239.408 389.729 239.74 390.674C240.079 391.618 240.589 392.372 241.268 392.936C241.956 393.491 242.818 393.768 243.854 393.768ZM256.795 397V377.909H261.158V381.091H261.357C261.705 379.989 262.301 379.14 263.146 378.543C264 377.938 264.973 377.636 266.067 377.636C266.316 377.636 266.593 377.648 266.9 377.673C267.215 377.69 267.476 377.719 267.683 377.76V381.899C267.492 381.833 267.19 381.775 266.776 381.725C266.37 381.667 265.976 381.638 265.595 381.638C264.775 381.638 264.037 381.816 263.383 382.172C262.736 382.52 262.227 383.005 261.854 383.626C261.481 384.248 261.294 384.965 261.294 385.777V397H256.795ZM278.338 397.373C276.424 397.373 274.771 396.975 273.379 396.18C271.995 395.376 270.93 394.241 270.184 392.774C269.439 391.299 269.066 389.563 269.066 387.566C269.066 385.603 269.439 383.879 270.184 382.396C270.938 380.904 271.991 379.744 273.341 378.916C274.692 378.079 276.279 377.661 278.102 377.661C279.278 377.661 280.388 377.851 281.433 378.232C282.485 378.605 283.413 379.185 284.217 379.972C285.029 380.759 285.667 381.762 286.131 382.98C286.595 384.19 286.827 385.632 286.827 387.305V388.685H271.179V385.652H282.514C282.506 384.791 282.319 384.024 281.955 383.353C281.59 382.674 281.08 382.139 280.426 381.75C279.779 381.36 279.025 381.165 278.164 381.165C277.244 381.165 276.436 381.389 275.74 381.837C275.044 382.276 274.501 382.856 274.112 383.577C273.731 384.289 273.536 385.072 273.528 385.926V388.573C273.528 389.683 273.731 390.636 274.137 391.432C274.543 392.219 275.11 392.824 275.839 393.246C276.569 393.661 277.422 393.868 278.4 393.868C279.054 393.868 279.647 393.777 280.177 393.594C280.708 393.404 281.167 393.126 281.557 392.762C281.946 392.397 282.24 391.946 282.439 391.407L286.64 391.879C286.375 392.99 285.87 393.959 285.124 394.788C284.386 395.608 283.442 396.246 282.29 396.702C281.138 397.149 279.821 397.373 278.338 397.373ZM305.722 382.955L301.62 383.403C301.504 382.988 301.301 382.599 301.011 382.234C300.73 381.87 300.348 381.576 299.868 381.352C299.387 381.128 298.799 381.016 298.103 381.016C297.167 381.016 296.379 381.219 295.741 381.625C295.112 382.031 294.801 382.558 294.809 383.204C294.801 383.759 295.004 384.211 295.418 384.559C295.841 384.907 296.537 385.192 297.506 385.416L300.763 386.112C302.569 386.502 303.911 387.119 304.79 387.964C305.676 388.809 306.124 389.915 306.132 391.283C306.124 392.484 305.772 393.545 305.076 394.464C304.388 395.376 303.431 396.089 302.204 396.602C300.978 397.116 299.57 397.373 297.979 397.373C295.642 397.373 293.761 396.884 292.336 395.906C290.911 394.92 290.061 393.549 289.788 391.792L294.175 391.37C294.374 392.231 294.797 392.882 295.443 393.321C296.089 393.76 296.93 393.98 297.966 393.98C299.035 393.98 299.893 393.76 300.539 393.321C301.194 392.882 301.521 392.339 301.521 391.693C301.521 391.146 301.31 390.694 300.887 390.338C300.473 389.982 299.826 389.708 298.948 389.518L295.692 388.834C293.86 388.453 292.506 387.811 291.627 386.908C290.749 385.996 290.314 384.844 290.322 383.452C290.314 382.276 290.633 381.257 291.279 380.395C291.934 379.525 292.841 378.854 294.001 378.381C295.17 377.901 296.516 377.661 298.041 377.661C300.278 377.661 302.039 378.137 303.323 379.09C304.616 380.043 305.415 381.331 305.722 382.955Z" fill="white"/>
<path d="M386.817 416V407.435L409.54 385.158C411.714 382.964 413.525 381.014 414.974 379.31C416.423 377.605 417.509 375.954 418.234 374.356C418.958 372.758 419.32 371.053 419.32 369.242C419.32 367.175 418.852 365.407 417.914 363.937C416.977 362.445 415.688 361.295 414.047 360.485C412.406 359.675 410.542 359.271 408.454 359.271C406.302 359.271 404.416 359.718 402.797 360.613C401.178 361.487 399.92 362.733 399.026 364.352C398.152 365.972 397.715 367.9 397.715 370.137H386.433C386.433 365.982 387.381 362.371 389.278 359.303C391.174 356.234 393.784 353.859 397.108 352.175C400.453 350.492 404.288 349.651 408.614 349.651C413.003 349.651 416.859 350.471 420.183 352.112C423.507 353.752 426.085 356 427.918 358.855C429.771 361.71 430.698 364.97 430.698 368.635C430.698 371.085 430.229 373.493 429.292 375.858C428.354 378.223 426.703 380.844 424.338 383.72C421.994 386.597 418.702 390.08 414.462 394.171L403.18 405.645V406.092H431.689V416H386.817Z" fill="white"/>
<path d="M454.511 376V350.545H470.817V354.411H459.122V361.321H469.699V365.187H459.122V376H454.511ZM481.746 376.373C479.881 376.373 478.266 375.963 476.898 375.142C475.531 374.322 474.471 373.174 473.717 371.7C472.971 370.225 472.598 368.501 472.598 366.529C472.598 364.557 472.971 362.829 473.717 361.346C474.471 359.863 475.531 358.711 476.898 357.891C478.266 357.071 479.881 356.661 481.746 356.661C483.61 356.661 485.226 357.071 486.593 357.891C487.96 358.711 489.017 359.863 489.762 361.346C490.516 362.829 490.893 364.557 490.893 366.529C490.893 368.501 490.516 370.225 489.762 371.7C489.017 373.174 487.96 374.322 486.593 375.142C485.226 375.963 483.61 376.373 481.746 376.373ZM481.771 372.768C482.781 372.768 483.627 372.491 484.306 371.936C484.985 371.372 485.491 370.618 485.822 369.674C486.162 368.729 486.332 367.677 486.332 366.517C486.332 365.348 486.162 364.292 485.822 363.347C485.491 362.394 484.985 361.636 484.306 361.073C483.627 360.509 482.781 360.228 481.771 360.228C480.735 360.228 479.873 360.509 479.185 361.073C478.506 361.636 477.996 362.394 477.657 363.347C477.325 364.292 477.159 365.348 477.159 366.517C477.159 367.677 477.325 368.729 477.657 369.674C477.996 370.618 478.506 371.372 479.185 371.936C479.873 372.491 480.735 372.768 481.771 372.768ZM494.712 376V356.909H499.075V360.091H499.274C499.622 358.989 500.218 358.14 501.063 357.543C501.917 356.938 502.89 356.636 503.984 356.636C504.233 356.636 504.51 356.648 504.817 356.673C505.132 356.69 505.393 356.719 505.6 356.76V360.899C505.409 360.833 505.107 360.775 504.693 360.725C504.287 360.667 503.893 360.638 503.512 360.638C502.692 360.638 501.954 360.816 501.3 361.172C500.653 361.52 500.144 362.005 499.771 362.626C499.398 363.248 499.211 363.965 499.211 364.777V376H494.712ZM508.589 376V356.909H512.89V360.153H513.113C513.511 359.059 514.17 358.206 515.089 357.593C516.009 356.971 517.107 356.661 518.383 356.661C519.676 356.661 520.765 356.975 521.652 357.605C522.547 358.227 523.177 359.076 523.541 360.153H523.74C524.163 359.092 524.875 358.247 525.878 357.618C526.889 356.98 528.086 356.661 529.47 356.661C531.226 356.661 532.66 357.216 533.77 358.326C534.881 359.436 535.436 361.056 535.436 363.186V376H530.924V363.882C530.924 362.697 530.609 361.831 529.979 361.284C529.35 360.729 528.579 360.451 527.668 360.451C526.582 360.451 525.733 360.791 525.12 361.471C524.515 362.142 524.212 363.016 524.212 364.093V376H519.8V363.695C519.8 362.709 519.502 361.922 518.905 361.334C518.317 360.746 517.546 360.451 516.593 360.451C515.947 360.451 515.359 360.617 514.828 360.949C514.298 361.272 513.876 361.732 513.561 362.328C513.246 362.916 513.088 363.604 513.088 364.391V376H508.589ZM545.494 376.385C544.284 376.385 543.195 376.17 542.225 375.739C541.264 375.3 540.502 374.654 539.938 373.8C539.383 372.947 539.105 371.894 539.105 370.643C539.105 369.566 539.304 368.675 539.702 367.971C540.1 367.267 540.642 366.703 541.33 366.281C542.018 365.858 542.793 365.539 543.654 365.324C544.524 365.1 545.423 364.938 546.351 364.839C547.47 364.723 548.377 364.619 549.073 364.528C549.769 364.429 550.275 364.279 550.59 364.081C550.913 363.873 551.074 363.554 551.074 363.124V363.049C551.074 362.113 550.797 361.388 550.242 360.874C549.687 360.36 548.887 360.103 547.843 360.103C546.741 360.103 545.867 360.344 545.22 360.824C544.582 361.305 544.152 361.872 543.928 362.527L539.727 361.93C540.058 360.77 540.605 359.801 541.367 359.022C542.13 358.235 543.062 357.647 544.164 357.257C545.266 356.859 546.484 356.661 547.818 356.661C548.738 356.661 549.653 356.768 550.565 356.984C551.476 357.199 552.309 357.555 553.063 358.053C553.817 358.541 554.422 359.208 554.878 360.054C555.342 360.899 555.574 361.955 555.574 363.223V376H551.248V373.377H551.099C550.826 373.908 550.441 374.405 549.943 374.869C549.455 375.325 548.837 375.693 548.092 375.975C547.354 376.249 546.488 376.385 545.494 376.385ZM546.662 373.079C547.565 373.079 548.348 372.901 549.011 372.545C549.674 372.18 550.184 371.7 550.54 371.103C550.905 370.506 551.087 369.856 551.087 369.152V366.902C550.946 367.018 550.706 367.126 550.366 367.225C550.035 367.325 549.662 367.412 549.247 367.486C548.833 367.561 548.423 367.627 548.017 367.685C547.611 367.743 547.259 367.793 546.96 367.834C546.289 367.925 545.689 368.074 545.158 368.282C544.628 368.489 544.21 368.779 543.903 369.152C543.596 369.516 543.443 369.989 543.443 370.569C543.443 371.397 543.746 372.023 544.35 372.445C544.955 372.868 545.726 373.079 546.662 373.079ZM567.182 376.336C565.683 376.336 564.34 375.95 563.155 375.18C561.971 374.409 561.034 373.29 560.347 371.824C559.659 370.357 559.315 368.576 559.315 366.479C559.315 364.358 559.663 362.568 560.359 361.11C561.063 359.643 562.012 358.537 563.205 357.792C564.398 357.038 565.728 356.661 567.195 356.661C568.313 356.661 569.233 356.851 569.954 357.232C570.675 357.605 571.247 358.057 571.669 358.587C572.092 359.109 572.419 359.602 572.651 360.066H572.838V350.545H577.349V376H572.925V372.992H572.651C572.419 373.456 572.084 373.949 571.644 374.471C571.205 374.985 570.625 375.424 569.904 375.789C569.184 376.153 568.276 376.336 567.182 376.336ZM568.438 372.644C569.391 372.644 570.203 372.387 570.874 371.874C571.545 371.352 572.055 370.627 572.403 369.699C572.751 368.77 572.925 367.689 572.925 366.455C572.925 365.22 572.751 364.147 572.403 363.235C572.063 362.324 571.557 361.616 570.886 361.11C570.223 360.605 569.407 360.352 568.438 360.352C567.435 360.352 566.598 360.613 565.927 361.135C565.256 361.657 564.751 362.378 564.411 363.298C564.071 364.217 563.901 365.27 563.901 366.455C563.901 367.648 564.071 368.712 564.411 369.649C564.759 370.577 565.268 371.31 565.94 371.849C566.619 372.379 567.452 372.644 568.438 372.644ZM590.471 376.373C588.607 376.373 586.991 375.963 585.624 375.142C584.257 374.322 583.196 373.174 582.442 371.7C581.696 370.225 581.324 368.501 581.324 366.529C581.324 364.557 581.696 362.829 582.442 361.346C583.196 359.863 584.257 358.711 585.624 357.891C586.991 357.071 588.607 356.661 590.471 356.661C592.336 356.661 593.951 357.071 595.319 357.891C596.686 358.711 597.742 359.863 598.488 361.346C599.242 362.829 599.619 364.557 599.619 366.529C599.619 368.501 599.242 370.225 598.488 371.7C597.742 373.174 596.686 374.322 595.319 375.142C593.951 375.963 592.336 376.373 590.471 376.373ZM590.496 372.768C591.507 372.768 592.352 372.491 593.032 371.936C593.711 371.372 594.217 370.618 594.548 369.674C594.888 368.729 595.058 367.677 595.058 366.517C595.058 365.348 594.888 364.292 594.548 363.347C594.217 362.394 593.711 361.636 593.032 361.073C592.352 360.509 591.507 360.228 590.496 360.228C589.46 360.228 588.599 360.509 587.911 361.073C587.231 361.636 586.722 362.394 586.382 363.347C586.051 364.292 585.885 365.348 585.885 366.517C585.885 367.677 586.051 368.729 586.382 369.674C586.722 370.618 587.231 371.372 587.911 371.936C588.599 372.491 589.46 372.768 590.496 372.768ZM603.438 376V356.909H607.8V360.091H607.999C608.347 358.989 608.944 358.14 609.789 357.543C610.642 356.938 611.616 356.636 612.71 356.636C612.958 356.636 613.236 356.648 613.543 356.673C613.857 356.69 614.118 356.719 614.326 356.76V360.899C614.135 360.833 613.833 360.775 613.418 360.725C613.012 360.667 612.619 360.638 612.237 360.638C611.417 360.638 610.68 360.816 610.025 361.172C609.379 361.52 608.869 362.005 608.496 362.626C608.123 363.248 607.937 363.965 607.937 364.777V376H603.438ZM624.98 376.373C623.066 376.373 621.413 375.975 620.021 375.18C618.637 374.376 617.573 373.241 616.827 371.774C616.081 370.299 615.708 368.563 615.708 366.566C615.708 364.603 616.081 362.879 616.827 361.396C617.581 359.904 618.633 358.744 619.984 357.916C621.334 357.079 622.921 356.661 624.744 356.661C625.921 356.661 627.031 356.851 628.075 357.232C629.127 357.605 630.055 358.185 630.859 358.972C631.671 359.759 632.309 360.762 632.773 361.98C633.237 363.19 633.469 364.632 633.469 366.305V367.685H617.821V364.652H629.156C629.148 363.791 628.962 363.024 628.597 362.353C628.233 361.674 627.723 361.139 627.068 360.75C626.422 360.36 625.668 360.165 624.806 360.165C623.887 360.165 623.079 360.389 622.383 360.837C621.687 361.276 621.144 361.856 620.754 362.577C620.373 363.289 620.179 364.072 620.17 364.926V367.573C620.17 368.683 620.373 369.636 620.779 370.432C621.185 371.219 621.753 371.824 622.482 372.246C623.211 372.661 624.065 372.868 625.042 372.868C625.697 372.868 626.289 372.777 626.82 372.594C627.35 372.404 627.81 372.126 628.199 371.762C628.589 371.397 628.883 370.946 629.082 370.407L633.283 370.879C633.018 371.99 632.512 372.959 631.767 373.788C631.029 374.608 630.084 375.246 628.933 375.702C627.781 376.149 626.463 376.373 624.98 376.373ZM652.364 361.955L648.263 362.403C648.147 361.988 647.944 361.599 647.654 361.234C647.372 360.87 646.991 360.576 646.51 360.352C646.03 360.128 645.441 360.016 644.745 360.016C643.809 360.016 643.022 360.219 642.384 360.625C641.754 361.031 641.444 361.558 641.452 362.204C641.444 362.759 641.647 363.211 642.061 363.559C642.483 363.907 643.179 364.192 644.149 364.416L647.405 365.112C649.212 365.502 650.554 366.119 651.432 366.964C652.319 367.809 652.766 368.915 652.775 370.283C652.766 371.484 652.414 372.545 651.718 373.464C651.03 374.376 650.073 375.089 648.847 375.602C647.621 376.116 646.212 376.373 644.621 376.373C642.285 376.373 640.404 375.884 638.978 374.906C637.553 373.92 636.704 372.549 636.43 370.792L640.818 370.37C641.017 371.231 641.439 371.882 642.086 372.321C642.732 372.76 643.573 372.98 644.609 372.98C645.678 372.98 646.535 372.76 647.182 372.321C647.836 371.882 648.163 371.339 648.163 370.693C648.163 370.146 647.952 369.694 647.53 369.338C647.115 368.982 646.469 368.708 645.591 368.518L642.334 367.834C640.503 367.453 639.148 366.811 638.27 365.908C637.392 364.996 636.957 363.844 636.965 362.452C636.957 361.276 637.276 360.257 637.922 359.395C638.577 358.525 639.484 357.854 640.644 357.381C641.812 356.901 643.159 356.661 644.683 356.661C646.921 356.661 648.681 357.137 649.966 358.09C651.258 359.043 652.058 360.331 652.364 361.955ZM461.396 418.336C459.897 418.336 458.554 417.95 457.369 417.18C456.184 416.409 455.248 415.29 454.56 413.824C453.873 412.357 453.529 410.576 453.529 408.479C453.529 406.358 453.877 404.568 454.573 403.11C455.277 401.643 456.226 400.537 457.419 399.792C458.612 399.038 459.942 398.661 461.409 398.661C462.527 398.661 463.447 398.851 464.168 399.232C464.889 399.605 465.461 400.057 465.883 400.587C466.306 401.109 466.633 401.602 466.865 402.066H467.051V392.545H471.563V418H467.138V414.992H466.865C466.633 415.456 466.297 415.949 465.858 416.471C465.419 416.985 464.839 417.424 464.118 417.789C463.397 418.153 462.49 418.336 461.396 418.336ZM462.652 414.644C463.605 414.644 464.417 414.387 465.088 413.874C465.759 413.352 466.268 412.627 466.616 411.699C466.964 410.77 467.138 409.689 467.138 408.455C467.138 407.22 466.964 406.147 466.616 405.235C466.277 404.324 465.771 403.616 465.1 403.11C464.437 402.605 463.621 402.352 462.652 402.352C461.649 402.352 460.812 402.613 460.141 403.135C459.47 403.657 458.964 404.378 458.625 405.298C458.285 406.217 458.115 407.27 458.115 408.455C458.115 409.648 458.285 410.712 458.625 411.649C458.973 412.577 459.482 413.31 460.153 413.849C460.833 414.379 461.666 414.644 462.652 414.644ZM484.809 418.373C482.895 418.373 481.242 417.975 479.85 417.18C478.466 416.376 477.402 415.241 476.656 413.774C475.91 412.299 475.537 410.563 475.537 408.566C475.537 406.603 475.91 404.879 476.656 403.396C477.41 401.904 478.462 400.744 479.813 399.916C481.164 399.079 482.75 398.661 484.573 398.661C485.75 398.661 486.86 398.851 487.904 399.232C488.957 399.605 489.885 400.185 490.688 400.972C491.5 401.759 492.138 402.762 492.602 403.98C493.066 405.19 493.298 406.632 493.298 408.305V409.685H477.65V406.652H488.986C488.977 405.791 488.791 405.024 488.426 404.353C488.062 403.674 487.552 403.139 486.897 402.75C486.251 402.36 485.497 402.165 484.635 402.165C483.716 402.165 482.908 402.389 482.212 402.837C481.516 403.276 480.973 403.856 480.584 404.577C480.202 405.289 480.008 406.072 479.999 406.926V409.573C479.999 410.683 480.202 411.636 480.608 412.432C481.014 413.219 481.582 413.824 482.311 414.246C483.04 414.661 483.894 414.868 484.872 414.868C485.526 414.868 486.119 414.777 486.649 414.594C487.179 414.404 487.639 414.126 488.028 413.762C488.418 413.397 488.712 412.946 488.911 412.407L493.112 412.879C492.847 413.99 492.341 414.959 491.596 415.788C490.858 416.608 489.914 417.246 488.762 417.702C487.61 418.149 486.293 418.373 484.809 418.373ZM514.114 418.373C512.249 418.373 510.634 417.963 509.267 417.142C507.899 416.322 506.839 415.174 506.085 413.7C505.339 412.225 504.966 410.501 504.966 408.529C504.966 406.557 505.339 404.829 506.085 403.346C506.839 401.863 507.899 400.711 509.267 399.891C510.634 399.071 512.249 398.661 514.114 398.661C515.978 398.661 517.594 399.071 518.961 399.891C520.328 400.711 521.385 401.863 522.131 403.346C522.885 404.829 523.262 406.557 523.262 408.529C523.262 410.501 522.885 412.225 522.131 413.7C521.385 415.174 520.328 416.322 518.961 417.142C517.594 417.963 515.978 418.373 514.114 418.373ZM514.139 414.768C515.15 414.768 515.995 414.491 516.674 413.936C517.354 413.372 517.859 412.618 518.191 411.674C518.53 410.729 518.7 409.677 518.7 408.517C518.7 407.348 518.53 406.292 518.191 405.347C517.859 404.394 517.354 403.636 516.674 403.073C515.995 402.509 515.15 402.228 514.139 402.228C513.103 402.228 512.241 402.509 511.553 403.073C510.874 403.636 510.364 404.394 510.025 405.347C509.693 406.292 509.528 407.348 509.528 408.517C509.528 409.677 509.693 410.729 510.025 411.674C510.364 412.618 510.874 413.372 511.553 413.936C512.241 414.491 513.103 414.768 514.139 414.768ZM527.08 425.159V398.909H531.505V402.066H531.766C531.998 401.602 532.325 401.109 532.748 400.587C533.171 400.057 533.742 399.605 534.463 399.232C535.184 398.851 536.104 398.661 537.222 398.661C538.697 398.661 540.027 399.038 541.212 399.792C542.405 400.537 543.35 401.643 544.046 403.11C544.75 404.568 545.102 406.358 545.102 408.479C545.102 410.576 544.758 412.357 544.071 413.824C543.383 415.29 542.447 416.409 541.262 417.18C540.077 417.95 538.735 418.336 537.235 418.336C536.141 418.336 535.234 418.153 534.513 417.789C533.792 417.424 533.212 416.985 532.773 416.471C532.342 415.949 532.006 415.456 531.766 414.992H531.58V425.159H527.08ZM531.493 408.455C531.493 409.689 531.667 410.77 532.015 411.699C532.371 412.627 532.881 413.352 533.543 413.874C534.215 414.387 535.027 414.644 535.979 414.644C536.974 414.644 537.807 414.379 538.478 413.849C539.149 413.31 539.654 412.577 539.994 411.649C540.342 410.712 540.516 409.648 540.516 408.455C540.516 407.27 540.346 406.217 540.006 405.298C539.667 404.378 539.161 403.657 538.49 403.135C537.819 402.613 536.982 402.352 535.979 402.352C535.018 402.352 534.202 402.605 533.531 403.11C532.86 403.616 532.35 404.324 532.002 405.235C531.662 406.147 531.493 407.22 531.493 408.455ZM548.955 418V398.909H553.455V418H548.955ZM551.217 396.2C550.505 396.2 549.892 395.963 549.378 395.491C548.864 395.011 548.607 394.435 548.607 393.763C548.607 393.084 548.864 392.508 549.378 392.036C549.892 391.555 550.505 391.315 551.217 391.315C551.938 391.315 552.551 391.555 553.057 392.036C553.571 392.508 553.828 393.084 553.828 393.763C553.828 394.435 553.571 395.011 553.057 395.491C552.551 395.963 551.938 396.2 551.217 396.2ZM562.581 406.814V418H558.081V398.909H562.382V402.153H562.605C563.045 401.084 563.745 400.235 564.706 399.605C565.675 398.975 566.873 398.661 568.298 398.661C569.615 398.661 570.763 398.942 571.741 399.506C572.727 400.069 573.489 400.885 574.028 401.954C574.575 403.023 574.844 404.32 574.836 405.844V418H570.336V406.54C570.336 405.264 570.005 404.266 569.342 403.545C568.687 402.824 567.78 402.464 566.62 402.464C565.833 402.464 565.133 402.638 564.52 402.986C563.915 403.326 563.438 403.819 563.09 404.465C562.75 405.111 562.581 405.894 562.581 406.814ZM579.409 418V398.909H583.909V418H579.409ZM581.672 396.2C580.959 396.2 580.346 395.963 579.832 395.491C579.318 395.011 579.061 394.435 579.061 393.763C579.061 393.084 579.318 392.508 579.832 392.036C580.346 391.555 580.959 391.315 581.672 391.315C582.392 391.315 583.006 391.555 583.511 392.036C584.025 392.508 584.282 393.084 584.282 393.763C584.282 394.435 584.025 395.011 583.511 395.491C583.006 395.963 582.392 396.2 581.672 396.2ZM594.029 418.385C592.819 418.385 591.73 418.17 590.76 417.739C589.799 417.3 589.037 416.654 588.473 415.8C587.918 414.947 587.641 413.894 587.641 412.643C587.641 411.566 587.839 410.675 588.237 409.971C588.635 409.267 589.178 408.703 589.865 408.281C590.553 407.858 591.328 407.539 592.19 407.324C593.06 407.1 593.959 406.938 594.887 406.839C596.005 406.723 596.913 406.619 597.609 406.528C598.305 406.429 598.81 406.279 599.125 406.081C599.448 405.873 599.61 405.554 599.61 405.124V405.049C599.61 404.113 599.332 403.388 598.777 402.874C598.222 402.36 597.422 402.103 596.378 402.103C595.276 402.103 594.402 402.344 593.756 402.824C593.118 403.305 592.687 403.872 592.463 404.527L588.262 403.93C588.593 402.77 589.14 401.801 589.903 401.022C590.665 400.235 591.597 399.647 592.699 399.257C593.801 398.859 595.019 398.661 596.353 398.661C597.273 398.661 598.189 398.768 599.1 398.984C600.012 399.199 600.844 399.555 601.598 400.053C602.352 400.541 602.957 401.208 603.413 402.054C603.877 402.899 604.109 403.955 604.109 405.223V418H599.784V415.377H599.634C599.361 415.908 598.976 416.405 598.479 416.869C597.99 417.325 597.372 417.693 596.627 417.975C595.889 418.249 595.023 418.385 594.029 418.385ZM595.197 415.079C596.101 415.079 596.884 414.901 597.546 414.545C598.209 414.18 598.719 413.7 599.075 413.103C599.44 412.506 599.622 411.856 599.622 411.152V408.902C599.481 409.018 599.241 409.126 598.901 409.225C598.57 409.325 598.197 409.412 597.783 409.486C597.368 409.561 596.958 409.627 596.552 409.685C596.146 409.743 595.794 409.793 595.496 409.834C594.824 409.925 594.224 410.074 593.693 410.282C593.163 410.489 592.745 410.779 592.438 411.152C592.132 411.516 591.978 411.989 591.978 412.569C591.978 413.397 592.281 414.023 592.886 414.445C593.49 414.868 594.261 415.079 595.197 415.079ZM592.898 396.585L590.176 396.523C590.176 395.048 590.557 393.892 591.32 393.055C592.082 392.218 593.022 391.8 594.141 391.8C594.679 391.8 595.148 391.891 595.545 392.073C595.943 392.247 596.308 392.45 596.639 392.682C596.979 392.914 597.31 393.121 597.633 393.304C597.957 393.478 598.313 393.565 598.702 393.565C599.175 393.565 599.547 393.386 599.821 393.03C600.103 392.674 600.248 392.218 600.256 391.663L602.928 391.775C602.92 393.258 602.535 394.41 601.772 395.23C601.01 396.042 600.074 396.452 598.963 396.461C598.367 396.469 597.865 396.382 597.459 396.2C597.053 396.017 596.697 395.81 596.391 395.578C596.092 395.346 595.79 395.143 595.483 394.969C595.177 394.787 594.816 394.696 594.402 394.696C593.963 394.696 593.602 394.87 593.321 395.218C593.039 395.566 592.898 396.021 592.898 396.585ZM616.96 418.373C615.096 418.373 613.48 417.963 612.113 417.142C610.746 416.322 609.685 415.174 608.931 413.7C608.186 412.225 607.813 410.501 607.813 408.529C607.813 406.557 608.186 404.829 608.931 403.346C609.685 401.863 610.746 400.711 612.113 399.891C613.48 399.071 615.096 398.661 616.96 398.661C618.825 398.661 620.441 399.071 621.808 399.891C623.175 400.711 624.231 401.863 624.977 403.346C625.731 404.829 626.108 406.557 626.108 408.529C626.108 410.501 625.731 412.225 624.977 413.7C624.231 415.174 623.175 416.322 621.808 417.142C620.441 417.963 618.825 418.373 616.96 418.373ZM616.985 414.768C617.996 414.768 618.841 414.491 619.521 413.936C620.2 413.372 620.706 412.618 621.037 411.674C621.377 410.729 621.547 409.677 621.547 408.517C621.547 407.348 621.377 406.292 621.037 405.347C620.706 404.394 620.2 403.636 619.521 403.073C618.841 402.509 617.996 402.228 616.985 402.228C615.95 402.228 615.088 402.509 614.4 403.073C613.721 403.636 613.211 404.394 612.871 405.347C612.54 406.292 612.374 407.348 612.374 408.517C612.374 409.677 612.54 410.729 612.871 411.674C613.211 412.618 613.721 413.372 614.4 413.936C615.088 414.491 615.95 414.768 616.985 414.768Z" fill="white"/>
<path d="M754.308 416.895C749.705 416.895 745.614 416.107 742.035 414.53C738.477 412.953 735.664 410.759 733.597 407.946C731.531 405.134 730.433 401.884 730.305 398.198H742.322C742.429 399.967 743.015 401.511 744.08 402.832C745.146 404.132 746.563 405.144 748.331 405.869C750.099 406.593 752.081 406.955 754.276 406.955C756.619 406.955 758.697 406.55 760.508 405.741C762.319 404.91 763.736 403.759 764.759 402.289C765.781 400.819 766.282 399.125 766.261 397.207C766.282 395.226 765.771 393.479 764.727 391.966C763.683 390.453 762.17 389.271 760.188 388.418C758.228 387.566 755.863 387.14 753.093 387.14H747.308V377.999H753.093C755.373 377.999 757.365 377.605 759.07 376.817C760.795 376.028 762.148 374.92 763.129 373.493C764.109 372.044 764.588 370.371 764.567 368.475C764.588 366.621 764.173 365.013 763.32 363.649C762.489 362.264 761.307 361.188 759.773 360.421C758.26 359.654 756.481 359.271 754.435 359.271C752.433 359.271 750.579 359.633 748.874 360.357C747.17 361.082 745.795 362.115 744.751 363.457C743.707 364.778 743.153 366.355 743.089 368.188H731.68C731.765 364.523 732.82 361.305 734.844 358.536C736.889 355.744 739.616 353.571 743.026 352.016C746.435 350.439 750.259 349.651 754.499 349.651C758.867 349.651 762.66 350.471 765.877 352.112C769.116 353.731 771.619 355.915 773.388 358.663C775.156 361.412 776.04 364.448 776.04 367.772C776.062 371.458 774.975 374.548 772.781 377.04C770.607 379.533 767.752 381.163 764.215 381.93V382.442C768.817 383.081 772.344 384.786 774.794 387.555C777.266 390.304 778.491 393.724 778.469 397.815C778.469 401.479 777.425 404.761 775.337 407.658C773.271 410.535 770.415 412.793 766.772 414.434C763.15 416.075 758.995 416.895 754.308 416.895Z" fill="white"/>
<path d="M817.556 363.545H822.168V380.175C822.168 381.998 821.737 383.602 820.875 384.985C820.022 386.369 818.82 387.451 817.271 388.229C815.721 389 813.911 389.385 811.839 389.385C809.759 389.385 807.945 389 806.395 388.229C804.846 387.451 803.644 386.369 802.791 384.985C801.937 383.602 801.511 381.998 801.511 380.175V363.545H806.122V379.79C806.122 380.851 806.354 381.795 806.818 382.624C807.29 383.453 807.953 384.103 808.806 384.575C809.66 385.039 810.671 385.271 811.839 385.271C813.007 385.271 814.018 385.039 814.872 384.575C815.734 384.103 816.396 383.453 816.86 382.624C817.324 381.795 817.556 380.851 817.556 379.79V363.545ZM842.07 374.955L837.968 375.403C837.852 374.988 837.649 374.599 837.359 374.234C837.077 373.87 836.696 373.576 836.215 373.352C835.735 373.128 835.147 373.016 834.451 373.016C833.514 373.016 832.727 373.219 832.089 373.625C831.459 374.031 831.149 374.558 831.157 375.204C831.149 375.759 831.352 376.211 831.766 376.559C832.188 376.907 832.884 377.192 833.854 377.416L837.11 378.112C838.917 378.502 840.259 379.119 841.137 379.964C842.024 380.809 842.471 381.915 842.48 383.283C842.471 384.484 842.119 385.545 841.423 386.464C840.735 387.376 839.778 388.089 838.552 388.602C837.326 389.116 835.917 389.373 834.326 389.373C831.99 389.373 830.109 388.884 828.684 387.906C827.258 386.92 826.409 385.549 826.136 383.792L830.523 383.37C830.722 384.231 831.144 384.882 831.791 385.321C832.437 385.76 833.278 385.98 834.314 385.98C835.383 385.98 836.24 385.76 836.887 385.321C837.541 384.882 837.869 384.339 837.869 383.693C837.869 383.146 837.657 382.694 837.235 382.338C836.82 381.982 836.174 381.708 835.296 381.518L832.039 380.834C830.208 380.453 828.853 379.811 827.975 378.908C827.097 377.996 826.662 376.844 826.67 375.452C826.662 374.276 826.981 373.257 827.627 372.395C828.282 371.525 829.189 370.854 830.349 370.381C831.517 369.901 832.864 369.661 834.388 369.661C836.626 369.661 838.386 370.137 839.671 371.09C840.963 372.043 841.763 373.331 842.07 374.955ZM858.358 380.971V369.909H862.857V389H858.494V385.607H858.296C857.865 386.676 857.156 387.55 856.17 388.229C855.192 388.909 853.987 389.249 852.553 389.249C851.302 389.249 850.196 388.971 849.235 388.416C848.282 387.852 847.536 387.036 846.998 385.967C846.459 384.89 846.19 383.589 846.19 382.065V369.909H850.689V381.369C850.689 382.578 851.02 383.54 851.683 384.252C852.346 384.965 853.216 385.321 854.293 385.321C854.956 385.321 855.598 385.159 856.22 384.836C856.841 384.513 857.351 384.033 857.749 383.395C858.155 382.748 858.358 381.94 858.358 380.971ZM872.977 389.385C871.768 389.385 870.678 389.17 869.708 388.739C868.747 388.3 867.985 387.654 867.422 386.8C866.866 385.947 866.589 384.894 866.589 383.643C866.589 382.566 866.788 381.675 867.185 380.971C867.583 380.267 868.126 379.703 868.814 379.281C869.501 378.858 870.276 378.539 871.138 378.324C872.008 378.1 872.907 377.938 873.835 377.839C874.953 377.723 875.861 377.619 876.557 377.528C877.253 377.429 877.758 377.279 878.073 377.081C878.396 376.873 878.558 376.554 878.558 376.124V376.049C878.558 375.113 878.28 374.388 877.725 373.874C877.17 373.36 876.37 373.103 875.326 373.103C874.224 373.103 873.35 373.344 872.704 373.824C872.066 374.305 871.635 374.872 871.411 375.527L867.21 374.93C867.542 373.77 868.089 372.801 868.851 372.022C869.613 371.235 870.545 370.647 871.647 370.257C872.749 369.859 873.967 369.661 875.301 369.661C876.221 369.661 877.137 369.768 878.048 369.984C878.96 370.199 879.792 370.555 880.547 371.053C881.301 371.541 881.905 372.208 882.361 373.054C882.825 373.899 883.057 374.955 883.057 376.223V389H878.732V386.377H878.583C878.309 386.908 877.924 387.405 877.427 387.869C876.938 388.325 876.321 388.693 875.575 388.975C874.837 389.249 873.972 389.385 872.977 389.385ZM874.146 386.079C875.049 386.079 875.832 385.901 876.495 385.545C877.158 385.18 877.667 384.7 878.023 384.103C878.388 383.506 878.57 382.856 878.57 382.152V379.902C878.429 380.018 878.189 380.126 877.849 380.225C877.518 380.325 877.145 380.412 876.731 380.486C876.317 380.561 875.906 380.627 875.5 380.685C875.094 380.743 874.742 380.793 874.444 380.834C873.773 380.925 873.172 381.074 872.642 381.282C872.111 381.489 871.693 381.779 871.386 382.152C871.08 382.516 870.926 382.989 870.926 383.569C870.926 384.397 871.229 385.023 871.834 385.445C872.439 385.868 873.209 386.079 874.146 386.079ZM873.773 367.398L876.557 361.718H880.957L877.141 367.398H873.773ZM887.581 389V369.909H891.944V373.091H892.143C892.491 371.989 893.087 371.14 893.933 370.543C894.786 369.938 895.76 369.636 896.853 369.636C897.102 369.636 897.379 369.648 897.686 369.673C898.001 369.69 898.262 369.719 898.469 369.76V373.899C898.279 373.833 897.976 373.775 897.562 373.725C897.156 373.667 896.762 373.638 896.381 373.638C895.561 373.638 894.823 373.816 894.169 374.172C893.522 374.52 893.013 375.005 892.64 375.626C892.267 376.248 892.081 376.965 892.081 377.777V389H887.581ZM901.458 389V369.909H905.958V389H901.458ZM903.72 367.2C903.008 367.2 902.395 366.963 901.881 366.491C901.367 366.011 901.11 365.435 901.11 364.763C901.11 364.084 901.367 363.508 901.881 363.036C902.395 362.555 903.008 362.315 903.72 362.315C904.441 362.315 905.054 362.555 905.56 363.036C906.074 363.508 906.33 364.084 906.33 364.763C906.33 365.435 906.074 366.011 905.56 366.491C905.054 366.963 904.441 367.2 903.72 367.2ZM918.912 389.373C917.047 389.373 915.432 388.963 914.064 388.142C912.697 387.322 911.637 386.174 910.883 384.7C910.137 383.225 909.764 381.501 909.764 379.529C909.764 377.557 910.137 375.829 910.883 374.346C911.637 372.863 912.697 371.711 914.064 370.891C915.432 370.071 917.047 369.661 918.912 369.661C920.776 369.661 922.392 370.071 923.759 370.891C925.126 371.711 926.183 372.863 926.928 374.346C927.682 375.829 928.059 377.557 928.059 379.529C928.059 381.501 927.682 383.225 926.928 384.7C926.183 386.174 925.126 387.322 923.759 388.142C922.392 388.963 920.776 389.373 918.912 389.373ZM918.937 385.768C919.947 385.768 920.793 385.491 921.472 384.936C922.151 384.372 922.657 383.618 922.988 382.674C923.328 381.729 923.498 380.677 923.498 379.517C923.498 378.348 923.328 377.292 922.988 376.347C922.657 375.394 922.151 374.636 921.472 374.073C920.793 373.509 919.947 373.228 918.937 373.228C917.901 373.228 917.039 373.509 916.351 374.073C915.672 374.636 915.162 375.394 914.823 376.347C914.491 377.292 914.325 378.348 914.325 379.517C914.325 380.677 914.491 381.729 914.823 382.674C915.162 383.618 915.672 384.372 916.351 384.936C917.039 385.491 917.901 385.768 918.937 385.768ZM946.967 374.955L942.865 375.403C942.749 374.988 942.546 374.599 942.256 374.234C941.975 373.87 941.594 373.576 941.113 373.352C940.632 373.128 940.044 373.016 939.348 373.016C938.412 373.016 937.625 373.219 936.987 373.625C936.357 374.031 936.046 374.558 936.054 375.204C936.046 375.759 936.249 376.211 936.663 376.559C937.086 376.907 937.782 377.192 938.751 377.416L942.008 378.112C943.814 378.502 945.156 379.119 946.035 379.964C946.921 380.809 947.369 381.915 947.377 383.283C947.369 384.484 947.017 385.545 946.321 386.464C945.633 387.376 944.676 388.089 943.45 388.602C942.223 389.116 940.815 389.373 939.224 389.373C936.887 389.373 935.006 388.884 933.581 387.906C932.156 386.92 931.306 385.549 931.033 383.792L935.42 383.37C935.619 384.231 936.042 384.882 936.688 385.321C937.335 385.76 938.176 385.98 939.211 385.98C940.28 385.98 941.138 385.76 941.784 385.321C942.439 384.882 942.766 384.339 942.766 383.693C942.766 383.146 942.555 382.694 942.132 382.338C941.718 381.982 941.071 381.708 940.193 381.518L936.937 380.834C935.106 380.453 933.751 379.811 932.873 378.908C931.994 377.996 931.559 376.844 931.567 375.452C931.559 374.276 931.878 373.257 932.525 372.395C933.179 371.525 934.086 370.854 935.246 370.381C936.415 369.901 937.761 369.661 939.286 369.661C941.523 369.661 943.284 370.137 944.568 371.09C945.861 372.043 946.66 373.331 946.967 374.955Z" fill="white"/>
<defs>
<linearGradient id="paint0_linear_10_78" x1="665" y1="336" x2="-7.93862e-06" y2="374" gradientUnits="userSpaceOnUse">
<stop stop-color="#FE0793"/>
<stop offset="1" stop-color="#FFB403"/>
</linearGradient>
</defs>
</svg>
